<?xml version="1.0" encoding="utf-8"?>
<!-- Generator: Adobe Illustrator 22.0.1, SVG Export Plug-In . SVG Version: 6.00 Build 0)  -->
<svg version="1.1" id="Layer_1" xmlns="http://www.w3.org/2000/svg" xmlns:xlink="http://www.w3.org/1999/xlink" x="0px" y="0px"
	 viewBox="0 0 782 230" style="enable-background:new 0 0 782 230;" xml:space="preserve">
<style type="text/css">
	.st0{fill:#FFFFFF;}
</style>
<g>
	<path class="st0" d="M114.7,160.1c-19.7,0-26.6-14.8-26.6-45.5c0-29.7,7.7-42.6,22.9-42.6c11.8,0,18.3,9.3,20.4,20.2h37.2
		c-3.1-24.8-22-47.5-56-47.5c-33.3,0-66.1,21.8-66.1,72.5c0,49.5,33.8,70.3,60.4,70.3c33.3,0,53.5-13.9,62.8-46h-31.4
		C134.4,151.5,126.3,160.1,114.7,160.1z"/>
	<path class="st0" d="M305.6,86.9c0-17.9-8.9-39.7-54.8-39.7h-65.9v137.6h39.3v-56.4h17.9l19.5,56.4h43.7l-25.6-63.4
		C294.9,115.5,305.6,104,305.6,86.9z M244.6,102.2h-20.4V73.4h22.1c12.1,0,17.8,6.2,17.8,14.9C264.1,97.2,255.9,102.2,244.6,102.2z"
		/>
	<polygon class="st0" points="364.8,128.9 405.9,128.9 405.9,100.5 364.8,100.5 364.8,75.6 429.1,75.6 429.1,47.2 325.5,47.2 
		325.5,184.8 431.1,184.8 431.1,155.3 364.8,155.3 	"/>
	<polygon class="st0" points="486.4,155.3 486.4,128.9 527.5,128.9 527.5,100.5 486.4,100.5 486.4,75.6 550.7,75.6 550.7,47.2 
		447.1,47.2 447.1,184.8 552.7,184.8 552.7,155.3 	"/>
</g>
<g>
	<polygon class="st0" points="703.1,79.4 663.9,40.2 624.8,79.4 	"/>
	<polygon class="st0" points="623.8,151.6 663.9,191.8 704.1,151.6 	"/>
	<polygon class="st0" points="603.9,100.3 588.2,116 602.9,130.7 725,130.7 739.7,116 723.9,100.3 	"/>
</g>
<g>
	<path class="st0" d="M722.4,171.5c-1.9-1.9-4.3-2.9-6.9-2.9c-2.6,0-5.1,1-6.9,2.9c-1.9,1.9-2.9,4.3-2.9,6.9c0,2.6,1,5.1,2.9,6.9
		c1.9,1.9,4.3,2.9,6.9,2.9c2.6,0,5.1-1,6.9-2.9c1.9-1.9,2.9-4.3,2.9-6.9C725.3,175.9,724.3,173.4,722.4,171.5z M723.5,178.5
		c0,4.4-3.6,8.1-8.1,8.1c-4.4,0-8.1-3.6-8.1-8.1s3.6-8.1,8.1-8.1C719.9,170.4,723.5,174,723.5,178.5z"/>
	<path class="st0" d="M718.7,177.7c0.4-0.5,0.6-1.2,0.6-1.9c0-1.1-0.5-1.9-1.6-2.4c-0.5-0.2-1.4-0.3-2.6-0.3h-3.1v10.9h1.9v-4.4h1.2
		l3.3,4.3l0,0.1h2.4l-3.7-4.9C717.8,178.6,718.4,178.1,718.7,177.7z M717.3,176c0,0.6-0.2,1.1-0.7,1.4c-0.5,0.4-1.1,0.5-2,0.5h-0.7
		v-3.4h0.8c1,0,1.7,0.1,2,0.3C717.1,175.1,717.3,175.4,717.3,176z"/>
</g>
</svg>
