<?xml version="1.0" encoding="utf-8"?>
<!-- Generator: Adobe Illustrator 21.1.0, SVG Export Plug-In . SVG Version: 6.00 Build 0)  -->
<svg version="1.1" id="Layer_1" xmlns="http://www.w3.org/2000/svg" xmlns:xlink="http://www.w3.org/1999/xlink" x="0px" y="0px" viewBox="0 0 902 282" width="902px" height="282px" style="enable-background:new 0 0 902 282;" xml:space="preserve">
<style type="text/css">
	.st0{fill:#004C97;}
</style>
<title>Group 2</title>
<desc>Created with Sketch.</desc>
<g id="econo-logo">
	<g id="Group-2">
		<path id="Fill-1" class="st0" d="M899.8,140.9L899.8,140.9C899.7,63.1,768.2,0.1,606,0.1c-92.5,0-175,20.5-228.8,52.5
			c44-10.4,95.5-16.4,150.5-16.4c162.2,0,293.7,52,293.7,116c0,64.1-131.5,116-293.7,116c-18.8,0-37.2-0.7-55.1-2.1
			c40.1,9.8,85.4,15.4,133.4,15.4C768.2,281.6,899.7,218.6,899.8,140.9"/>
		<path id="Fill-2" class="st0" d="M700.1,122.1V93.2l-21.7,12.6v16.3h-9.9v17.3h9.9V175c0,7.7,0.2,12.7,0.7,15.3
			c0.6,3.5,1.6,6.4,3,8.4c1.5,2.1,3.8,3.8,6.9,5.1c3.1,1.3,6.7,2,10.6,2c6.4,0,12.1-1.1,17.1-3.2l-1.9-16.8
			c-3.8,1.4-6.7,2.1-8.7,2.1c-1.4,0-2.7-0.4-3.7-1.1c-1-0.7-1.6-1.6-1.9-2.7c-0.3-1.1-0.4-5-0.4-11.7v-33h14.8v-17.3H700.1"/>
		<path id="Fill-3" class="st0" d="M580.8,90.9v113h21.7v-41c0-6.9,0.7-12.1,2-15.6c1.3-3.5,3.4-6.2,6.2-7.9c2.8-1.7,6-2.6,9.6-2.6
			c3.1,0,5.7,0.7,7.8,2c2.1,1.4,3.5,3.2,4.4,5.5c0.8,2.3,1.2,7.8,1.2,16.3v43.2h21.7v-48c0-7.3-0.4-12.8-1.1-16.3
			c-0.7-3.5-2.1-6.7-4.2-9.6c-2-2.9-5-5.2-9.1-7.1c-4-1.8-8.5-2.8-13.5-2.8c-9.7,0-18.1,4.1-25.1,12.3V90.9H580.8"/>
		<path id="Fill-4" class="st0" d="M535.6,180.2c-3.6,4.1-8.1,6.2-13.4,6.2c-4.9,0-9.1-2-12.4-6.1c-3.4-4-5-10.4-5-19.1
			c0-8.3,1.7-14.4,5-18.5c3.4-4,7.6-6,12.8-6c5.3,0,9.8,2.1,13.3,6.2c3.5,4.1,5.2,10.4,5.2,18.9C541,170,539.2,176.1,535.6,180.2z
			 M542,122.1v11.5c-6.6-8.9-14.9-13.3-25-13.3c-9.8,0-18,3.6-24.6,10.9c-6.6,7.2-9.9,17.7-9.9,31.4c0,10.9,2.5,20.1,7.6,27.4
			c6.4,9.3,15.1,13.9,26.1,13.9c9.9,0,18-4.4,24.5-13.3v11.9c0,4.8-0.3,8.1-1,9.9c-1,2.5-2.4,4.3-4.3,5.5c-2.8,1.7-7.1,2.5-12.7,2.5
			c-4.4,0-7.7-0.8-9.7-2.3c-1.5-1.1-2.4-3.1-2.8-5.9l-24.7-3c-0.1,1-0.1,1.9-0.1,2.6c0,7.3,2.9,13.3,8.7,18.1
			c5.8,4.8,15.6,7.1,29.5,7.1c7.3,0,13.4-0.8,18.2-2.3c4.8-1.5,8.6-3.7,11.5-6.4c2.9-2.7,5.1-6.5,6.7-11.3c1.6-4.8,2.4-12,2.4-21.7
			v-73.5H542z"/>
		<path id="Fill-5" class="st0" d="M446.3,111H468v-20h-21.7V111z M446.3,203.9H468v-81.9h-21.7V203.9z"/>
		<polygon id="Fill-6" class="st0" points="405.3,203.9 426.9,203.9 426.9,90.9 405.3,90.9 		"/>
		<path id="Fill-7" class="st0" d="M371.6,186.5c-3.8,5.2-8.4,7.8-13.8,7.8c-5.7,0-10.5-2.6-14.3-7.8c-3.9-5.2-5.8-13.1-5.8-23.7
			c0-10.5,1.9-18.3,5.7-23.5c3.8-5.2,8.4-7.8,13.8-7.8c5.7,0,10.5,2.6,14.3,7.8c3.9,5.2,5.8,13,5.8,23.6
			C377.3,173.5,375.4,181.3,371.6,186.5z M379.9,131c-6-7.2-13.5-10.8-22.4-10.8c-9.1,0-16.6,3.6-22.5,10.8
			c-5.9,7.2-8.9,17.9-8.9,32c0,14.1,3,24.7,9,31.9c6,7.2,13.5,10.8,22.5,10.8c9.1,0,16.7-3.6,22.6-10.8c5.9-7.2,8.9-18.1,8.9-32.8
			C388.9,148.6,385.9,138.2,379.9,131z"/>
		<path id="Fill-8" class="st0" d="M269.7,203.9v-44.8c0-9.9,1.6-16.8,4.9-20.9c3.2-4.1,7.6-6.1,13-6.1c2.9,0,5.4,0.8,7.6,2.3
			c2.2,1.5,3.8,3.7,4.8,6.4c1,2.8,1.5,7.2,1.5,13.2v49.9h11.3v-50.3c0-7.6-0.5-13.2-1.4-16.8c-0.9-3.7-2.3-6.6-4.2-8.9
			c-1.9-2.3-4.3-4.1-7.4-5.6c-3.1-1.4-6.4-2.1-10-2.1c-4.6,0-8.7,1.1-12.3,3.3c-3.6,2.2-6.6,5.6-9,10.1v-11.6h-10.2v81.9H269.7"/>
		<path id="Fill-9" class="st0" d="M227.6,186.5c-3.8,5.2-8.4,7.8-13.8,7.8c-5.7,0-10.5-2.6-14.3-7.8c-3.9-5.2-5.8-13.1-5.8-23.7
			c0-10.5,1.9-18.3,5.7-23.5c3.8-5.2,8.4-7.8,13.8-7.8c5.7,0,10.5,2.6,14.3,7.8c3.9,5.2,5.8,13,5.8,23.6
			C233.3,173.5,231.4,181.3,227.6,186.5z M235.9,131c-6-7.2-13.5-10.8-22.4-10.8c-9.1,0-16.6,3.6-22.5,10.8
			c-5.9,7.2-8.9,17.9-8.9,32c0,14.1,3,24.7,9,31.9c6,7.2,13.5,10.8,22.5,10.8c9.1,0,16.7-3.6,22.6-10.8c5.9-7.2,8.9-18.1,8.9-32.8
			C245,148.6,241.9,138.2,235.9,131z"/>
		<path id="Fill-10" class="st0" d="M155.2,189.4c-3.1,3.3-6.7,5-11.1,5c-5.5,0-10-2.5-13.5-7.5c-3.5-5-5.3-13.1-5.3-24.2
			c0-10.8,1.8-18.7,5.5-23.6c3.7-5,8.3-7.4,13.9-7.4c3.7,0,7,1.4,9.6,4.1c2.7,2.7,4.5,6.9,5.6,12.4l11-2c-1.3-8.6-4.4-15.1-9.1-19.4
			c-4.8-4.3-10.6-6.5-17.5-6.5c-9,0-16.4,3.6-22.1,10.7c-5.7,7.1-8.6,17.8-8.6,32c0,14.1,2.8,24.8,8.5,32
			c5.7,7.2,12.9,10.8,21.7,10.8c7.2,0,13.5-2.6,18.6-7.7c5.2-5.1,8.4-12.6,9.7-22.4l-11.2-1.8C160.2,180.9,158.3,186.1,155.2,189.4"
			/>
		<path id="Fill-11" class="st0" d="M32,194.4c-5.4,0-10.1-2.3-13.9-7c-3.8-4.7-5.9-11.6-6.4-20.8h50.1l0.1-3.7
			c0-13.8-2.9-24.4-8.7-31.7c-5.8-7.3-13.1-10.9-21.7-10.9c-9.1,0-16.6,3.7-22.5,11.1C3,138.8,0,149.6,0,163.7
			c0,13.6,2.9,24,8.8,31.3c5.9,7.2,13.6,10.8,23.1,10.8c7.6,0,13.9-2.2,19-6.7c5.1-4.4,8.6-11,10.6-19.8l-11.7-1.8
			C46.5,188.8,40.5,194.4,32,194.4 M18.3,138c3.6-4.2,7.9-6.4,13-6.4c5.7,0,10.3,2.5,13.9,7.6c2.5,3.5,4,8.8,4.5,15.9H12.4
			C12.8,147.9,14.7,142.2,18.3,138"/>
		<polygon id="Fill-12" class="st0" points="72.4,167.4 103.7,167.4 103.7,158.6 72.4,158.6 		"/>
		<g id="Group" transform="translate(876.000000, 52.000000)">
			<path id="Fill-19" class="st0" d="M13,24.1c-1.5,0-2.9-0.3-4.2-0.9c-1.3-0.6-2.4-1.4-3.4-2.4c-1-1-1.7-2.2-2.2-3.5
				c-0.5-1.4-0.8-2.8-0.8-4.4c0-1.6,0.3-3,0.8-4.4c0.5-1.3,1.3-2.5,2.2-3.5c1-1,2.1-1.8,3.4-2.3c1.3-0.6,2.7-0.9,4.2-0.9
				c1.5,0,2.9,0.3,4.2,0.9c1.3,0.6,2.4,1.3,3.4,2.3c1,1,1.7,2.2,2.2,3.5c0.5,1.3,0.8,2.8,0.8,4.4c0,1.6-0.3,3.1-0.8,4.4
				c-0.5,1.4-1.3,2.5-2.2,3.5c-1,1-2.1,1.8-3.4,2.4C15.9,23.8,14.5,24.1,13,24.1 M22.2,22.3c1.2-1.2,2.1-2.6,2.8-4.1
				c0.7-1.6,1-3.3,1-5.2v0c0-1.8-0.3-3.5-1-5.1c-0.7-1.6-1.6-2.9-2.8-4.1C21,2.6,19.6,1.7,18,1c-1.6-0.7-3.2-1-5-1
				c-1.8,0-3.5,0.3-5,1C6.4,1.7,5,2.6,3.9,3.7C2.7,4.9,1.7,6.3,1,7.8c-0.7,1.6-1,3.3-1,5.1c0,1.9,0.3,3.6,1,5.2
				c0.7,1.6,1.6,3,2.8,4.1S6.4,24.4,8,25c1.6,0.7,3.3,1,5,1c1.8,0,3.4-0.3,5-1C19.6,24.4,21,23.5,22.2,22.3"/>
			<path id="Fill-20" class="st0" d="M12.6,11.7h-2.3V6.9h3c0.4,0,0.8,0,1.1,0.1c0.4,0.1,0.7,0.2,1,0.3c0.3,0.2,0.5,0.4,0.7,0.7
				c0.2,0.3,0.3,0.7,0.3,1.2c0,0.6-0.1,1.1-0.3,1.4c-0.2,0.3-0.5,0.6-0.8,0.7c-0.4,0.2-0.8,0.3-1.2,0.3
				C13.6,11.6,13.1,11.7,12.6,11.7 M17.6,12.3c0.7-0.6,1.1-1.6,1.1-3c0-1.4-0.4-2.5-1.2-3.2C16.6,5.4,15.3,5,13.6,5H8v15h2.3v-6.5
				h2.4l3.9,6.5H19l-4.1-6.6C15.9,13.3,16.8,12.9,17.6,12.3"/>
		</g>
	</g>
</g>
</svg>
